<?xml version="1.0" encoding="UTF-8"?>
<svg id="Capa_1" data-name="Capa 1" xmlns="http://www.w3.org/2000/svg" viewBox="0 0 1004 118">
  <path d="M62.57,50.32c-21.35-3.47-36.49-6.63-36.49-16.3s9.46-13.78,27.66-13.78,26.19,4.94,28.39,16.2h20.09C100.64,15.09,82.56,3.21,53.64,3.21S5.89,15.62,5.89,34.76c0,16.93,15.04,27.45,44.69,31.55,20.93,2.73,32.92,8.1,32.92,17.25s-9.99,14.09-28.81,14.09c-19.77,0-30.71-5.99-32.92-18.4H2c1.68,23.45,20.19,35.55,52.58,35.55,30.18,0,48.9-11.88,48.9-31.02,0-17.56-14.2-29.13-40.91-33.44ZM945.53,54.11v15.98h37.44c-1.05,14.83-16.2,27.13-35.23,27.13-24.29,0-39.02-13.04-39.02-36.6,0-24.82,16.2-39.23,41.01-39.23,15.67,0,25.24,4,30.71,15.77h20.72c-5.57-21.77-24.5-33.97-51.42-33.97-35.33,0-60.78,21.87-60.78,57.42s22.82,54.16,57.63,54.16c37.02,0,55.42-22.61,55.42-49.95v-10.73h-56.47ZM771.27,69.25l17.67-41.54h1.05l17.67,41.54h-36.39ZM800.51,4.68h-22.08l-46.8,108.63h21.03l11.57-27.45h50.48l11.67,27.45h20.82l-46.69-108.63ZM599.85,22.56h41.54v90.76h19.46V22.56h41.54V4.68h-102.53v17.88ZM540.33,58.53c0,22.4-11.46,36.91-34.28,36.91h-29.76V22.56h29.76c22.4,0,34.28,13.46,34.28,35.97ZM506.78,4.68h-49.95v108.63h49.95c33.34,0,53.42-21.45,53.42-54.47s-20.19-54.16-53.42-54.16ZM328.74,66.83h59.21v-17.25h-59.21v-27.45h67.51V4.68h-86.55v108.63h88.02v-17.46h-68.99v-29.03ZM181.62,66.83h59.1v-17.25h-59.1v-27.45h67.51V4.68h-86.55v108.63h88.02v-17.46h-68.99v-29.03Z"/>
</svg>